<svg viewBox="-331 -290 965 479" width="965" height="479" version="1.1" baseProfile="full" xmlns="http://www.w3.org/2000/svg" class="js-draw--autoresize"><style id="js-draw-style-sheet">path{stroke-linecap:round;stroke-linejoin:round;}text{white-space:pre;}</style><path d="M634,189l0-479l-965,0l0,479l965,0" fill="#ffffff" class="js-draw-image-background"></path><path d="M-233,-220q16,15 32,25q30,20 55,36q47,28 87,49q32,17 67,57q16,18 9,39q-2,5 -34,7q-76,3 -139,5q-52,2 -58-4q-3-3 18-33q8-8 15-14q4-3 -43-9q-39-5 -70-10q-6-1 -31-2q-4,0 16-8q55-22 173-47q45-11 81-21q1,0 -3,0q-8,0 -39,29q-24,23 -16,73q5,29 101,32q116,4 236-53q22-10 22-41q0-23 -62-29q-50-5 -92,45q-18,21 -24,65q-1,9 22,39q15,19 101,35q38,7 150,7q2,0 -8-9q-3-2 -87-29q-51-16 -150-20q-17-1 -82,17q-23,6 -46,109q-4,18 80,44q76,23 252-4q85-13 128-59q4-19 4-36q0-18 -66-59q-52-32 -188-18q-26,3 -70,22q-12,5 -1,9" fill="none" stroke="#803380" stroke-width="4"></path><path d="M326,-288q-24,23 -76,55q-71,41 -130,73q-35,19 -57,61q-20,37 87,46q116,10 266-18q41-8 66-20q6-3 -33,1q-58,5 -106,9q-76,6 -141,30q-19,7 20,12q19,2 130-8q77-7 168-12q28-1 95-25q5-4 9-8q8-8 -118-5q-122,3 -188,33q-3,1 -1,16q1,11 109,2q57-5 136-31q22-7 -25-32q-30-16 -172-11q-31,1 -55,25q-9,9 -14,10q-10,3 -25,0" fill="none" stroke="#803380" stroke-width="4"></path></svg>